<svg xmlns="http://www.w3.org/2000/svg" xmlns:xlink="http://www.w3.org/1999/xlink" width="418.877" height="264" viewBox="0 0 418.877 264">
  <defs>
    <linearGradient id="linear-gradient" x1="1.043" y1="0.5" x2="0" y2="0.5" gradientUnits="objectBoundingBox">
      <stop offset="0" stop-color="#0e8b94"/>
      <stop offset="1" stop-color="#005ba7"/>
    </linearGradient>
    <clipPath id="clip-path">
      <rect id="Retângulo_31" data-name="Retângulo 31" width="418.877" height="264" fill="url(#linear-gradient)"/>
    </clipPath>
  </defs>
  <g id="Grupo_140" data-name="Grupo 140" clip-path="url(#clip-path)">
    <path id="Caminho_337" data-name="Caminho 337" d="M258.467,77.633a30.828,30.828,0,0,0,23.021-10.35h18.963A46.678,46.678,0,0,1,258.467,93.52c-13.062,0-25.631-5.766-35.4-16.232-6.51-6.982-14.906-18.651-23.025-29.937-5.505-7.642-10.7-14.862-14.889-20.038a30.963,30.963,0,0,0-24.239-11.367c-17.188,0-31.174,13.752-31.174,30.647s13.986,30.647,31.174,30.647c9.392,0,17.707-4.21,25.422-12.876,2.1-2.352,7.881-9.156,7.936-9.228l2.125-2.5L206.077,65.3l.192.251,0,.634V91.861H189.5V83.084a44.85,44.85,0,0,1-28.586,10.108c-26.082,0-47.3-20.905-47.3-46.6S134.834,0,160.916,0c9.793,0,20.2,3.844,28.586,10.236V.34h16.762V29.167c2.393,3.2,4.913,6.621,7.493,10.129,7.323,9.955,14.893,20.25,20.556,26.65,6.663,7.535,15.242,11.686,24.153,11.686M256.9.285c-11.7,0-29.045,2.713-44.467,26.161l-1,1.522,9.656,13.3,2.129-3.011c13.85-19.578,25.277-22.091,33.686-22.091A30.691,30.691,0,0,1,286.5,38.489l-41.542.03V54.64h58.027l.272-2.335a47.628,47.628,0,0,0,.311-5.4A46.7,46.7,0,0,0,256.9.285M144.81,198.13c-4.952,6.034-11.427,9.989-20.219,9.989-15.762,0-26.5-12.111-26.674-27.16,0,0-.132-5.282.166-8.173.106-1.046.724-4.852.852-5.3,2.5-10.963,13.079-19.57,24.443-19.57,12.126,0,22,9.517,23.9,21.279H109.727v11.767h52.1c1.388-24.222-12.471-45.846-38.629-45.846-25.461,0-39.489,19.893-39.489,43.94,0,23.354,15.587,41.87,39.838,41.87,16.609,0,29.765-8.288,37.561-22.793Zm173.3,0c-4.952,6.034-11.427,9.989-20.219,9.989-15.762,0-26.5-12.111-26.674-27.16,0,0-.132-5.282.166-8.173.106-1.046.724-4.852.852-5.3,2.5-10.963,13.079-19.57,24.443-19.57,12.126,0,22,9.517,23.906,21.279H283.029v11.767h52.1c1.384-24.222-12.471-45.846-38.625-45.846-25.465,0-39.494,19.893-39.494,43.94,0,23.354,15.587,41.87,39.839,41.87,16.609,0,29.765-8.288,37.561-22.793ZM67.381,137.358H81.24v81.315H67.381V207.426h-.345c-7.1,9-16.63,13.5-28.062,13.5C15.068,220.923,0,200.681,0,178.19c0-23.184,14.723-43.077,39.149-43.077a35.211,35.211,0,0,1,27.887,13.842h.345Zm-26.5,70.761c17.839,0,27.193-14.36,27.193-30.8,0-16.261-10.218-29.41-27.368-29.41-16.111,0-26.5,14.016-26.5,29.24,0,15.913,9.354,30.966,26.678,30.966m194.556-70.761h13.854v77.335c0,12.974,0,24.222-8.315,34.947-7.617,9.687-19.4,14.36-31.523,14.36-22.689,0-39.494-14.36-40.013-37.37H183.3c.175,15.054,11.087,24.566,25.984,24.566,21.475,0,26.155-15.743,26.155-34.083v-9.687h-.345a36.087,36.087,0,0,1-28.236,13.5c-23.732,0-38.8-19.9-38.8-42.563,0-22.836,15.242-43.247,39.319-43.247a33.914,33.914,0,0,1,27.717,13.842h.345Zm-26.5,70.761c17.839,0,27.193-14.36,27.193-30.8,0-16.261-10.218-29.41-27.364-29.41-16.111,0-26.5,14.016-26.5,29.24,0,15.913,9.354,30.966,26.674,30.966m209.943-70.761v81.315H405.018V207.426h-.345c-7.1,9-16.63,13.5-28.062,13.5-23.9,0-38.974-20.242-38.974-42.733,0-23.184,14.727-43.077,39.149-43.077a35.2,35.2,0,0,1,27.887,13.842h.345v-11.6Zm-40.358,70.761c17.839,0,27.193-14.36,27.193-30.8,0-16.261-10.218-29.41-27.368-29.41-16.107,0-26.5,14.016-26.5,29.24,0,15.913,9.358,30.966,26.678,30.966" transform="translate(0 0)" fill="url(#linear-gradient)"/>
  </g>
</svg>
